<svg width="30" height="29" viewBox="0 0 30 29" fill="none" xmlns="http://www.w3.org/2000/svg">
<path d="M29.1353 14.5C29.1353 6.49123 22.644 0 14.6353 0C6.62649 0 0.135254 6.49123 0.135254 14.5C0.135254 21.7381 5.43471 27.7367 12.3709 28.8252V18.6951H8.69224V14.5H12.3709V11.306C12.3709 7.67507 14.532 5.66493 17.8451 5.66493C19.4342 5.66493 21.0947 5.95096 21.0947 5.95096V9.51836H19.2673C17.4637 9.51836 16.9076 10.6386 16.9076 11.7827V14.5H20.9279L20.2843 18.6951H16.9076V28.8252C23.8358 27.7367 29.1353 21.7381 29.1353 14.5Z" fill="#1877F2"/>
<path d="M20.2761 18.6952L20.9197 14.5001H16.8994V11.7828C16.8994 10.6387 17.4635 9.51846 19.2592 9.51846H21.0865V5.95107C21.0865 5.95107 19.426 5.66504 17.837 5.66504C14.5238 5.66504 12.3627 7.67518 12.3627 11.3061V14.5001H8.68408V18.6952H12.3627V28.8253C13.1016 28.9445 13.8564 29.0001 14.6271 29.0001C15.3978 29.0001 16.1526 28.9365 16.8915 28.8253V18.6952H20.2761Z" fill="white"/>
</svg>
