<svg width="24" height="25" viewBox="0 0 24 25" fill="none" xmlns="http://www.w3.org/2000/svg">
<path d="M23.6455 12.7668C23.6455 11.7801 23.5654 11.0601 23.3922 10.3135H12.1255V14.7668H18.7388C18.6055 15.8735 17.8855 17.5401 16.2855 18.6601L16.263 18.8092L19.8253 21.5688L20.0721 21.5935C22.3388 19.5001 23.6455 16.4201 23.6455 12.7668Z" fill="#4285F4"/>
<path d="M12.1253 24.5007C15.3653 24.5007 18.0852 23.434 20.072 21.594L16.2853 18.6606C15.272 19.3673 13.9119 19.8606 12.1253 19.8606C8.95199 19.8606 6.25868 17.7674 5.29859 14.874L5.15786 14.886L1.45371 17.7526L1.40527 17.8873C3.37859 21.8073 7.43193 24.5007 12.1253 24.5007Z" fill="#34A853"/>
<path d="M5.29828 14.8731C5.04495 14.1265 4.89834 13.3264 4.89834 12.4998C4.89834 11.6731 5.04495 10.8731 5.28495 10.1264L5.27824 9.96741L1.52768 7.05469L1.40497 7.11306C0.591672 8.73974 0.125 10.5664 0.125 12.4998C0.125 14.4331 0.591672 16.2597 1.40497 17.8864L5.29828 14.8731Z" fill="#FBBC05"/>
<path d="M12.1253 5.13997C14.3786 5.13997 15.8986 6.1133 16.7653 6.92669L20.1519 3.62C18.072 1.68667 15.3653 0.5 12.1253 0.5C7.43193 0.5 3.37859 3.19331 1.40527 7.11328L5.28526 10.1267C6.25868 7.23333 8.95199 5.13997 12.1253 5.13997Z" fill="#EB4335"/>
</svg>
